<svg width="205" height="63" viewBox="0 0 205 63" fill="none" xmlns="http://www.w3.org/2000/svg">
<path d="M34.6045 0H6.9209C5.08536 0 3.32501 0.702379 2.02709 1.95262C0.729165 3.20286 0 4.89856 0 6.66667V55.5556C0 57.3237 0.729165 59.0194 2.02709 60.2696C3.32501 61.5198 5.08536 62.2222 6.9209 62.2222H34.6045C36.44 62.2222 38.2004 61.5198 39.4983 60.2696C40.7962 59.0194 41.5254 57.3237 41.5254 55.5556V6.66667C41.5254 4.89856 40.7962 3.20286 39.4983 1.95262C38.2004 0.702379 36.44 0 34.6045 0ZM36.9115 55.5556C36.9115 56.1449 36.6684 56.7102 36.2358 57.1269C35.8031 57.5436 35.2164 57.7778 34.6045 57.7778H6.9209C6.30906 57.7778 5.72227 57.5436 5.28963 57.1269C4.85699 56.7102 4.61393 56.1449 4.61393 55.5556V6.66667C4.61393 6.0773 4.85699 5.51207 5.28963 5.09532C5.72227 4.67857 6.30906 4.44444 6.9209 4.44444H12.8959L14.5108 6.02222C14.7264 6.22818 14.982 6.39113 15.2631 6.50171C15.5442 6.6123 15.8452 6.66836 16.1488 6.66667H25.3766C25.6803 6.66836 25.9812 6.6123 26.2623 6.50171C26.5434 6.39113 26.799 6.22818 27.0146 6.02222L28.6295 4.44444H34.6045C35.2164 4.44444 35.8031 4.67857 36.2358 5.09532C36.6684 5.51207 36.9115 6.0773 36.9115 6.66667V55.5556Z" fill="white"/>
<path d="M29.8522 20C28.253 20.0944 26.6681 20.3476 25.1229 20.7556C23.6141 21.1658 22.153 21.7243 20.7627 22.4222C19.3724 21.7243 17.9114 21.1658 16.4025 20.7556C14.8948 20.355 13.349 20.1019 11.7886 20C11.1535 19.9802 10.5346 20.1948 10.0584 20.6C9.80961 20.7992 9.60711 21.0466 9.46403 21.326C9.32095 21.6055 9.24049 21.9108 9.22787 22.2222V37.2667C9.22681 37.8336 9.45077 38.3796 9.85392 38.7927C10.2571 39.2058 10.8089 39.4549 11.3964 39.4889C12.6764 39.5566 13.9449 39.7578 15.1799 40.0889C16.7258 40.506 18.2075 41.1187 19.5862 41.9111C19.9369 42.1061 20.3347 42.2088 20.7396 42.2088C21.1446 42.2088 21.5424 42.1061 21.8931 41.9111C23.2814 41.0842 24.779 40.4414 26.3456 40C27.5805 39.6689 28.8491 39.4677 30.129 39.4C30.7165 39.366 31.2684 39.1169 31.6715 38.7038C32.0747 38.2907 32.2986 37.7448 32.2976 37.1778V22.2222C32.2995 21.9191 32.2371 21.6189 32.1141 21.3399C31.9911 21.0609 31.8102 20.8091 31.5824 20.6C31.1074 20.1928 30.4876 19.9779 29.8522 20V20ZM27.6836 35.2667C26.8202 35.3972 25.9652 35.5753 25.1229 35.8C23.6127 36.2064 22.1513 36.765 20.7627 37.4667C19.3742 36.765 17.9127 36.2064 16.4025 35.8C15.5602 35.5753 14.7053 35.3972 13.8418 35.2667V24.7333L15.1799 25.0444C16.7258 25.4615 18.2075 26.0743 19.5862 26.8667C19.9369 27.0617 20.3347 27.1644 20.7396 27.1644C21.1446 27.1644 21.5424 27.0617 21.8931 26.8667C23.2718 26.0743 24.7535 25.4615 26.2994 25.0444L27.6375 24.7333L27.6836 35.2667Z" fill="white"/>
<path d="M75.4868 27.8203C74.8796 22.7812 71.0657 19.8835 66.016 19.8835C60.2525 19.8835 55.8526 23.9531 55.8526 31.0909C55.8526 38.2074 60.1779 42.2983 66.016 42.2983C71.609 42.2983 74.9861 38.5803 75.4868 34.5639L70.8207 34.5426C70.3839 36.8757 68.5515 38.218 66.0905 38.218C62.7773 38.218 60.5295 35.7571 60.5295 31.0909C60.5295 26.5526 62.7454 23.9638 66.1225 23.9638C68.6474 23.9638 70.4691 25.4233 70.8207 27.8203H75.4868ZM86.103 42.3196C91.0675 42.3196 94.1569 38.9212 94.1569 33.8821C94.1569 28.8111 91.0675 25.4233 86.103 25.4233C81.1385 25.4233 78.049 28.8111 78.049 33.8821C78.049 38.9212 81.1385 42.3196 86.103 42.3196ZM86.1243 38.804C83.8338 38.804 82.6619 36.7053 82.6619 33.8501C82.6619 30.995 83.8338 28.8857 86.1243 28.8857C88.3721 28.8857 89.544 30.995 89.544 33.8501C89.544 36.7053 88.3721 38.804 86.1243 38.804ZM107.602 35.0327C107.612 37.2273 106.11 38.3778 104.48 38.3778C102.765 38.3778 101.657 37.174 101.646 35.2457V25.6364H97.1079V36.0554C97.1186 39.88 99.3558 42.2131 102.648 42.2131C105.109 42.2131 106.877 40.9453 107.612 39.0277H107.783V42H112.14V25.6364H107.602V35.0327ZM115.77 42H120.308V32.7422C120.308 30.7287 121.779 29.3438 123.781 29.3438C124.41 29.3438 125.273 29.4503 125.699 29.5888V25.5618C125.294 25.4659 124.73 25.402 124.271 25.402C122.439 25.402 120.937 26.4673 120.34 28.4915H120.17V25.6364H115.77V42ZM141.66 30.3026C141.256 27.2876 138.827 25.4233 134.693 25.4233C130.506 25.4233 127.747 27.3622 127.758 30.5156C127.747 32.9659 129.292 34.5533 132.488 35.1925L135.322 35.7571C136.749 36.0447 137.399 36.5668 137.42 37.3871C137.399 38.3565 136.344 39.049 134.757 39.049C133.138 39.049 132.062 38.3565 131.785 37.0249L127.321 37.2592C127.747 40.3913 130.41 42.3196 134.746 42.3196C138.986 42.3196 142.023 40.157 142.033 36.929C142.023 34.5639 140.478 33.147 137.303 32.4972L134.342 31.9006C132.818 31.5703 132.254 31.0483 132.264 30.2599C132.254 29.2798 133.361 28.6406 134.768 28.6406C136.344 28.6406 137.282 29.5036 137.506 30.5582L141.66 30.3026ZM152.349 42.3196C156.397 42.3196 159.124 40.3487 159.763 37.3125L155.566 37.0355C155.108 38.282 153.936 38.9318 152.423 38.9318C150.154 38.9318 148.716 37.4297 148.716 34.9901V34.9794H159.859V33.733C159.859 28.1719 156.493 25.4233 152.167 25.4233C147.352 25.4233 144.231 28.843 144.231 33.8928C144.231 39.081 147.309 42.3196 152.349 42.3196ZM148.716 32.1669C148.812 30.3026 150.229 28.8111 152.242 28.8111C154.213 28.8111 155.577 30.2173 155.587 32.1669H148.716ZM182.956 31.0909C182.956 23.9531 178.524 19.8835 172.739 19.8835C166.922 19.8835 162.523 23.9531 162.523 31.0909C162.523 38.1967 166.922 42.2983 172.739 42.2983C178.524 42.2983 182.956 38.2287 182.956 31.0909ZM178.279 31.0909C178.279 35.7145 176.084 38.218 172.739 38.218C169.383 38.218 167.199 35.7145 167.199 31.0909C167.199 26.4673 169.383 23.9638 172.739 23.9638C176.084 23.9638 178.279 26.4673 178.279 31.0909ZM198.209 26.4567H202.63C202.566 22.5682 199.37 19.8835 194.512 19.8835C189.729 19.8835 186.224 22.5256 186.245 26.4886C186.234 29.706 188.504 31.549 192.19 32.4332L194.565 33.0298C196.941 33.6051 198.262 34.2869 198.273 35.7571C198.262 37.3551 196.749 38.4418 194.406 38.4418C192.009 38.4418 190.283 37.3338 190.134 35.1499H185.67C185.787 39.8693 189.164 42.3089 194.459 42.3089C199.785 42.3089 202.918 39.7628 202.928 35.7678C202.918 32.1349 200.18 30.2067 196.387 29.3544L194.427 28.8857C192.531 28.4489 190.943 27.7457 190.975 26.1797C190.975 24.7734 192.222 23.7401 194.48 23.7401C196.685 23.7401 198.038 24.7415 198.209 26.4567Z" fill="white"/>
</svg>
