<svg width="201" height="53" viewBox="0 0 201 53" fill="none" xmlns="http://www.w3.org/2000/svg">
<path d="M29.1667 0H5.83333C4.28624 0 2.80251 0.592005 1.70854 1.64578C0.614582 2.69956 0 4.12878 0 5.61905V46.8254C0 48.3157 0.614582 49.7449 1.70854 50.7987C2.80251 51.8525 4.28624 52.4445 5.83333 52.4445H29.1667C30.7138 52.4445 32.1975 51.8525 33.2915 50.7987C34.3854 49.7449 35 48.3157 35 46.8254V5.61905C35 4.12878 34.3854 2.69956 33.2915 1.64578C32.1975 0.592005 30.7138 0 29.1667 0ZM31.1111 46.8254C31.1111 47.3222 30.9063 47.7986 30.5416 48.1498C30.1769 48.5011 29.6824 48.6984 29.1667 48.6984H5.83333C5.31763 48.6984 4.82306 48.5011 4.4584 48.1498C4.09375 47.7986 3.88889 47.3222 3.88889 46.8254V5.61905C3.88889 5.12229 4.09375 4.64589 4.4584 4.29463C4.82306 3.94337 5.31763 3.74603 5.83333 3.74603H10.8694L12.2306 5.07587C12.4122 5.24947 12.6277 5.38681 12.8646 5.48002C13.1015 5.57323 13.3552 5.62047 13.6111 5.61905H21.3889C21.6448 5.62047 21.8985 5.57323 22.1354 5.48002C22.3723 5.38681 22.5878 5.24947 22.7694 5.07587L24.1306 3.74603H29.1667C29.6824 3.74603 30.1769 3.94337 30.5416 4.29463C30.9063 4.64589 31.1111 5.12229 31.1111 5.61905V46.8254Z" fill="white"/>
<path d="M25.1611 16.8571C23.8132 16.9367 22.4774 17.1501 21.175 17.494C19.9033 17.8397 18.6718 18.3105 17.5 18.8987C16.3282 18.3105 15.0967 17.8397 13.825 17.494C12.5542 17.1564 11.2513 16.943 9.93611 16.8571C9.40084 16.8404 8.87916 17.0213 8.47778 17.3629C8.2681 17.5308 8.09742 17.7392 7.97683 17.9748C7.85623 18.2104 7.78841 18.4677 7.77778 18.7302V31.4105C7.77688 31.8884 7.96565 32.3485 8.30544 32.6967C8.64523 33.0449 9.11034 33.2548 9.60556 33.2835C10.6844 33.3406 11.7536 33.5102 12.7944 33.7892C14.0975 34.1408 15.3463 34.6572 16.5083 35.3251C16.8039 35.4895 17.1392 35.576 17.4806 35.576C17.8219 35.576 18.1572 35.4895 18.4528 35.3251C19.6229 34.6281 20.8852 34.0863 22.2056 33.7143C23.2464 33.4352 24.3156 33.2657 25.3945 33.2086C25.8897 33.1799 26.3548 32.97 26.6946 32.6218C27.0344 32.2736 27.2231 31.8134 27.2222 31.3356V18.7302C27.2239 18.4747 27.1712 18.2216 27.0676 17.9865C26.9639 17.7513 26.8114 17.5391 26.6195 17.3629C26.2191 17.0197 25.6967 16.8385 25.1611 16.8571V16.8571ZM23.3333 29.7248C22.6056 29.8348 21.885 29.9849 21.175 30.1743C19.9022 30.5168 18.6704 30.9877 17.5 31.5791C16.3297 30.9877 15.0979 30.5168 13.825 30.1743C13.1151 29.9849 12.3944 29.8348 11.6667 29.7248V20.8467L12.7944 21.1089C14.0975 21.4604 15.3463 21.9769 16.5083 22.6448C16.8039 22.8092 17.1392 22.8957 17.4806 22.8957C17.8219 22.8957 18.1572 22.8092 18.4528 22.6448C19.6148 21.9769 20.8637 21.4604 22.1667 21.1089L23.2945 20.8467L23.3333 29.7248Z" fill="white"/>
<path d="M71.4868 22.8203C70.8796 17.7812 67.0657 14.8835 62.016 14.8835C56.2525 14.8835 51.8526 18.9531 51.8526 26.0909C51.8526 33.2074 56.1779 37.2983 62.016 37.2983C67.609 37.2983 70.9861 33.5803 71.4868 29.5639L66.8207 29.5426C66.3839 31.8757 64.5515 33.218 62.0905 33.218C58.7773 33.218 56.5295 30.7571 56.5295 26.0909C56.5295 21.5526 58.7454 18.9638 62.1225 18.9638C64.6474 18.9638 66.4691 20.4233 66.8207 22.8203H71.4868ZM82.103 37.3196C87.0675 37.3196 90.1569 33.9212 90.1569 28.8821C90.1569 23.8111 87.0675 20.4233 82.103 20.4233C77.1385 20.4233 74.049 23.8111 74.049 28.8821C74.049 33.9212 77.1385 37.3196 82.103 37.3196ZM82.1243 33.804C79.8338 33.804 78.6619 31.7053 78.6619 28.8501C78.6619 25.995 79.8338 23.8857 82.1243 23.8857C84.3721 23.8857 85.544 25.995 85.544 28.8501C85.544 31.7053 84.3721 33.804 82.1243 33.804ZM103.602 30.0327C103.612 32.2273 102.11 33.3778 100.48 33.3778C98.7649 33.3778 97.6569 32.174 97.6463 30.2457V20.6364H93.1079V31.0554C93.1186 34.88 95.3558 37.2131 98.6477 37.2131C101.109 37.2131 102.877 35.9453 103.612 34.0277H103.783V37H108.14V20.6364H103.602V30.0327ZM111.77 37H116.308V27.7422C116.308 25.7287 117.779 24.3438 119.781 24.3438C120.41 24.3438 121.273 24.4503 121.699 24.5888V20.5618C121.294 20.4659 120.73 20.402 120.271 20.402C118.439 20.402 116.937 21.4673 116.34 23.4915H116.17V20.6364H111.77V37ZM137.66 25.3026C137.256 22.2876 134.827 20.4233 130.693 20.4233C126.506 20.4233 123.747 22.3622 123.758 25.5156C123.747 27.9659 125.292 29.5533 128.488 30.1925L131.322 30.7571C132.749 31.0447 133.399 31.5668 133.42 32.3871C133.399 33.3565 132.344 34.049 130.757 34.049C129.138 34.049 128.062 33.3565 127.785 32.0249L123.321 32.2592C123.747 35.3913 126.41 37.3196 130.746 37.3196C134.986 37.3196 138.023 35.157 138.033 31.929C138.023 29.5639 136.478 28.147 133.303 27.4972L130.342 26.9006C128.818 26.5703 128.254 26.0483 128.264 25.2599C128.254 24.2798 129.361 23.6406 130.768 23.6406C132.344 23.6406 133.282 24.5036 133.506 25.5582L137.66 25.3026ZM148.349 37.3196C152.397 37.3196 155.124 35.3487 155.763 32.3125L151.566 32.0355C151.108 33.282 149.936 33.9318 148.423 33.9318C146.154 33.9318 144.716 32.4297 144.716 29.9901V29.9794H155.859V28.733C155.859 23.1719 152.493 20.4233 148.167 20.4233C143.352 20.4233 140.231 23.843 140.231 28.8928C140.231 34.081 143.309 37.3196 148.349 37.3196ZM144.716 27.1669C144.812 25.3026 146.229 23.8111 148.242 23.8111C150.213 23.8111 151.577 25.2173 151.587 27.1669H144.716ZM178.956 26.0909C178.956 18.9531 174.524 14.8835 168.739 14.8835C162.922 14.8835 158.523 18.9531 158.523 26.0909C158.523 33.1967 162.922 37.2983 168.739 37.2983C174.524 37.2983 178.956 33.2287 178.956 26.0909ZM174.279 26.0909C174.279 30.7145 172.084 33.218 168.739 33.218C165.383 33.218 163.199 30.7145 163.199 26.0909C163.199 21.4673 165.383 18.9638 168.739 18.9638C172.084 18.9638 174.279 21.4673 174.279 26.0909ZM194.209 21.4567H198.63C198.566 17.5682 195.37 14.8835 190.512 14.8835C185.729 14.8835 182.224 17.5256 182.245 21.4886C182.234 24.706 184.504 26.549 188.19 27.4332L190.565 28.0298C192.941 28.6051 194.262 29.2869 194.273 30.7571C194.262 32.3551 192.749 33.4418 190.406 33.4418C188.009 33.4418 186.283 32.3338 186.134 30.1499H181.67C181.787 34.8693 185.164 37.3089 190.459 37.3089C195.785 37.3089 198.918 34.7628 198.928 30.7678C198.918 27.1349 196.18 25.2067 192.387 24.3544L190.427 23.8857C188.531 23.4489 186.943 22.7457 186.975 21.1797C186.975 19.7734 188.222 18.7401 190.48 18.7401C192.685 18.7401 194.038 19.7415 194.209 21.4567Z" fill="white"/>
</svg>
